<svg width="1080" height="607" viewBox="0 0 1080 607" fill="none" xmlns="http://www.w3.org/2000/svg">
<mask id="mask0_11_21" style="mask-type:alpha" maskUnits="userSpaceOnUse" x="0" y="0" width="1080" height="607">
<rect width="1080" height="607" fill="#D9D9D9"/>
</mask>
<g mask="url(#mask0_11_21)">
<rect x="-484" y="-12" width="2048" height="1290.5" fill="#F2F5F9"/>
</g>
<rect width="1080" height="405" transform="translate(0 101)" fill="#F2F5F9"/>
<circle cx="462" cy="304" r="74" fill="#FF0038"/>
<path opacity="0.5" d="M465.781 325H459.219V288.701H445.918V282.725H479.053V288.701H465.781V325Z" fill="white"/>
<circle cx="592" cy="304" r="74" fill="#111111"/>
<path d="M595.781 325H589.219V288.701H575.918V282.725H609.053V288.701H595.781V325Z" fill="white"/>
<path d="M663.333 304C663.333 305.473 664.527 306.667 666 306.667C667.473 306.667 668.667 305.473 668.667 304C668.667 302.527 667.473 301.333 666 301.333C664.527 301.333 663.333 302.527 663.333 304ZM666 304V304.5H716V304V303.5H666V304Z" fill="black"/>
<rect x="716" y="290" width="28" height="28" rx="14" fill="#111111"/>
<path d="M729.986 308.5V300.372H729.87L727.416 302.108V300.447L729.993 298.636H731.75V308.5H729.986Z" fill="white"/>
<path d="M757.686 310.266C754.98 310.266 753.195 308.813 753.029 306.671L753.021 306.563H755.42L755.428 306.655C755.536 307.584 756.391 308.249 757.686 308.249C758.964 308.249 759.803 307.535 759.803 306.522V306.505C759.803 305.36 758.948 304.729 757.495 304.729H756.125V302.944H757.462C758.724 302.944 759.537 302.28 759.537 301.309V301.292C759.537 300.296 758.848 299.682 757.669 299.682C756.491 299.682 755.702 300.321 755.603 301.317L755.594 301.392H753.287L753.295 301.292C753.469 299.151 755.154 297.756 757.669 297.756C760.243 297.756 761.903 299.051 761.903 300.96V300.977C761.903 302.471 760.807 303.442 759.404 303.733V303.783C761.189 303.949 762.351 304.978 762.351 306.605V306.622C762.351 308.796 760.483 310.266 757.686 310.266ZM766.327 302.438C765.48 302.438 764.866 301.815 764.866 301.002C764.866 300.18 765.48 299.558 766.327 299.558C767.182 299.558 767.788 300.18 767.788 301.002C767.788 301.815 767.182 302.438 766.327 302.438ZM766.327 308.448C765.48 308.448 764.866 307.825 764.866 307.012C764.866 306.19 765.48 305.567 766.327 305.567C767.182 305.567 767.788 306.19 767.788 307.012C767.788 307.825 767.182 308.448 766.327 308.448ZM773.424 310V300.388H773.275L770.336 302.43V300.172L773.433 298.022H775.931V310H773.424Z" fill="#111111"/>
</svg>
